<svg width="117" height="54" viewBox="0 0 117 54" fill="none" xmlns="http://www.w3.org/2000/svg">
<path d="M31.7133 32.831C29.9403 32.831 28.4424 32.3266 27.2197 31.3178C26.0275 30.309 25.4314 28.857 25.4314 26.9617C25.4314 25.525 26.1651 24.2105 27.6324 23.0184C29.0997 21.7956 31.4076 20.8785 34.5562 20.2672C35.0453 20.1755 35.5956 20.0837 36.2069 19.992C36.8183 19.8698 37.4603 19.7475 38.1328 19.6252V16.0028C38.1328 13.9241 37.8729 12.4721 37.3533 11.6467C36.8642 10.7908 36.0847 10.3628 35.0147 10.3628C34.2811 10.3628 33.7003 10.6074 33.2723 11.0965C32.8444 11.555 32.5692 12.3651 32.447 13.5267L32.3553 14.0311C32.2941 15.3456 31.9731 16.3085 31.3923 16.9199C30.8115 17.5312 30.0932 17.8369 29.2372 17.8369C28.4424 17.8369 27.7852 17.5924 27.2655 17.1033C26.7459 16.6142 26.486 15.957 26.486 15.1316C26.486 13.8783 26.914 12.8236 27.7699 11.9677C28.6564 11.1118 29.818 10.4698 31.2548 10.0419C32.6915 9.61391 34.2505 9.39993 35.9318 9.39993C38.6524 9.39993 40.7464 10.0724 42.2137 11.4175C43.7116 12.7319 44.4605 14.887 44.4605 17.8828V28.0164C44.4605 29.392 45.1025 30.0798 46.3864 30.0798C46.3864 30.0798 47.0042 30.1283 47.3951 30.0798C48.4833 29.9447 49.8941 28.7997 49.8941 28.7997C50.3718 29.2773 48.1869 31.5977 46.5507 32.1431C45.4579 32.5074 44.2465 32.7393 42.9932 32.7393C41.6482 32.7393 40.5783 32.4336 39.7835 31.8222C39.0193 31.1803 38.5149 30.3396 38.2703 29.3003C37.3533 30.2785 36.4056 31.1191 35.4274 31.8222C34.4798 32.4947 33.2417 32.831 31.7133 32.831ZM34.5104 30.0339C35.1217 30.0339 35.6873 29.8964 36.2069 29.6212C36.7572 29.3155 37.3991 28.857 38.1328 28.2456V20.5423C37.8271 20.6034 37.5214 20.6646 37.2157 20.7257C36.91 20.7868 36.5585 20.848 36.1611 20.9091C34.7549 21.2759 33.6239 21.9026 32.7679 22.7891C31.9426 23.645 31.5299 24.8066 31.5299 26.2739C31.5299 27.5273 31.8203 28.4749 32.4011 29.1169C32.9819 29.7282 33.685 30.0339 34.5104 30.0339Z" fill="#1F1212"/>
<path d="M55.446 32.831C53.673 32.831 52.1751 32.3266 50.9524 31.3178C49.7602 30.309 49.1641 28.857 49.1641 26.9617C49.1641 25.525 49.8977 24.2105 51.365 23.0184C52.8323 21.7956 55.1403 20.8785 58.2889 20.2672C58.778 20.1755 59.3282 20.0837 59.9396 19.992C60.551 19.8698 61.1929 19.7475 61.8654 19.6252V16.0028C61.8654 13.9241 61.6056 12.4721 61.0859 11.6467C60.5968 10.7908 59.8173 10.3628 58.7474 10.3628C58.0138 10.3628 57.4329 10.6074 57.005 11.0965C56.577 11.555 56.3019 12.3651 56.1796 13.5267L56.0879 14.0311C56.0268 15.3456 55.7058 16.3085 55.125 16.9199C54.5442 17.5312 53.8258 17.8369 52.9699 17.8369C52.1751 17.8369 51.5179 17.5924 50.9982 17.1033C50.4785 16.6142 50.2187 15.957 50.2187 15.1316C50.2187 13.8783 50.6467 12.8236 51.5026 11.9677C52.3891 11.1118 53.5507 10.4698 54.9874 10.0419C56.4242 9.61391 57.9832 9.39993 59.6645 9.39993C62.3851 9.39993 64.4791 10.0724 65.9464 11.4175C67.4443 12.7319 68.1932 14.887 68.1932 17.8828V28.0164C68.1932 29.392 68.8351 30.0798 70.119 30.0798H71.1278L71.5405 30.4466C70.9597 31.1803 70.3177 31.7458 69.6146 32.1432C68.9421 32.5406 67.9792 32.7393 66.7259 32.7393C65.3809 32.7393 64.311 32.4336 63.5162 31.8222C62.7519 31.1803 62.2475 30.3396 62.003 29.3003C61.0859 30.2785 60.1383 31.1191 59.1601 31.8222C58.2125 32.4947 56.9744 32.831 55.446 32.831ZM58.243 30.0339C58.8544 30.0339 59.4199 29.8964 59.9396 29.6212C60.4898 29.3155 61.1318 28.857 61.8654 28.2456V20.5423C61.5598 20.6034 61.2541 20.6646 60.9484 20.7257C60.6427 20.7868 60.2911 20.848 59.8937 20.9091C58.4876 21.2759 57.3565 21.9026 56.5006 22.7891C55.6752 23.645 55.2626 24.8066 55.2626 26.2739C55.2626 27.5273 55.553 28.4749 56.1338 29.1169C56.7146 29.7282 57.4177 30.0339 58.243 30.0339Z" fill="#1F1212"/>
<path d="M72.3945 32.1432V31.6846L73.0823 31.5012C73.6937 31.3178 74.1064 31.0427 74.3203 30.6759C74.5649 30.309 74.6872 29.8352 74.6872 29.2544V14.9023C74.6872 14.2298 74.5649 13.7407 74.3203 13.435C74.1064 13.0988 73.6937 12.8695 73.0823 12.7472L72.3945 12.5638V12.1053L80.2813 9.44578L80.7398 9.90432L81.1525 13.8477V14.2145C81.5805 13.3586 82.1307 12.5791 82.8032 11.876C83.5063 11.1424 84.2705 10.5463 85.0959 10.0877C85.9518 9.6292 86.7924 9.39993 87.6178 9.39993C88.7794 9.39993 89.6659 9.7209 90.2773 10.3628C90.4375 10.531 90.5767 10.7108 90.6949 10.9021C91.0279 11.4408 91.1944 12.0712 91.1944 12.7931C91.1944 13.8324 90.8887 14.6425 90.2773 15.2233C89.6965 15.7735 88.9934 16.0487 88.168 16.0487C86.8841 16.0487 85.7531 15.4067 84.7749 14.1228L84.6832 14.0311C84.3775 13.6031 84.026 13.3739 83.6286 13.3433C83.2312 13.2822 82.8643 13.4656 82.5281 13.8936C82.2224 14.1687 81.9626 14.5049 81.7486 14.9023C81.5652 15.2692 81.3817 15.6971 81.1983 16.1862V28.9793C81.1983 30.202 81.7333 30.9663 82.8032 31.272L84.2705 31.6846V32.1432H72.3945Z" fill="#1F1212"/>
<path d="M101.639 32.831C99.8353 32.831 98.2152 32.4336 96.7784 31.6388C95.3417 30.8134 94.1954 29.5601 93.3394 27.8788C92.5141 26.167 92.1014 23.9813 92.1014 21.3218C92.1014 18.6317 92.5752 16.4155 93.5229 14.6731C94.4705 12.9001 95.7238 11.5856 97.2828 10.7297C98.8418 9.84318 100.538 9.39993 102.373 9.39993C103.442 9.39993 104.467 9.50692 105.445 9.7209C106.423 9.93488 107.294 10.2559 108.058 10.6838V4.72289C108.058 4.08094 107.951 3.60713 107.737 3.30144C107.554 2.99575 107.141 2.78177 106.499 2.65949L105.628 2.47608V2.01755L113.973 0L114.478 0.41268L114.294 6.83214V29.2544C114.294 29.8658 114.401 30.3702 114.615 30.7676C114.829 31.1344 115.227 31.3942 115.808 31.5471L116.22 31.6846V32.1432L108.379 32.6476L107.967 30.9968C107.141 31.5471 106.194 31.9903 105.124 32.3266C104.084 32.6628 102.923 32.831 101.639 32.831ZM104.298 31.1344C105.582 31.1344 106.759 30.7523 107.829 29.9881V11.7843C106.698 11.0506 105.536 10.6838 104.344 10.6838C102.877 10.6838 101.624 11.5397 100.584 13.2516C99.5449 14.9329 99.0252 17.5924 99.0252 21.2301C99.0252 24.8678 99.5143 27.4356 100.493 28.9334C101.471 30.4007 102.739 31.1344 104.298 31.1344Z" fill="#1F1212"/>
<path fill-rule="evenodd" clip-rule="evenodd" d="M5.62181 25.6664C7.3031 26.472 9.35217 26.8748 11.769 26.8748C15.2717 26.8748 17.9162 26.0867 19.7026 24.5105C21.524 22.8993 22.4347 20.8677 22.4347 18.4158C22.4347 16.2091 21.8042 14.4053 20.5432 13.0042L19.8602 12.3212C18.9845 11.5506 17.8637 10.9551 16.4976 10.5348C15.1666 10.1145 13.6079 9.90431 11.8216 9.90431C8.31887 9.90431 5.65683 10.6924 3.83544 12.2686C2.04907 13.8448 1.15589 15.8939 1.15589 18.4158C1.15589 21.5682 2.43437 23.88 4.99132 25.3511L3.2575 27.5578C2.73209 28.1883 2.27674 28.8188 1.89145 29.4493C1.54118 30.0447 1.36605 30.6927 1.36605 31.3933C1.36605 32.1639 1.61123 32.8819 2.10161 33.5474C2.59199 34.2129 3.38009 34.7559 4.46592 35.1762C3.20496 35.9468 2.13664 36.9625 1.26097 38.2235C0.420322 39.5195 0 40.798 0 42.0589C0 43.0747 0.332755 44.038 0.998265 44.9487C1.6988 45.8594 2.8722 46.5949 4.51846 47.1553C6.16472 47.7508 8.38893 48.0485 11.1911 48.0485C14.4486 48.0485 17.1631 47.5932 19.3348 46.6825C21.5415 45.8068 23.2053 44.6334 24.3261 43.1623C25.447 41.7262 26.0074 40.15 26.0074 38.4337C26.0074 36.8224 25.6046 35.5615 24.799 34.6508C23.9934 33.705 22.9251 32.987 21.594 32.4966C20.263 31.9712 18.7744 31.5509 17.1281 31.2357L7.25056 29.3967C6.16472 29.1866 5.62181 28.5386 5.62181 27.4528V25.6664ZM14.7638 24.0902C14.1333 25.2461 13.1175 25.824 11.7165 25.824C10.3855 25.824 9.40471 25.2636 8.77422 24.1427C8.17877 23.0219 7.88104 21.1129 7.88104 18.4158C7.88104 15.7188 8.21379 13.8098 8.8793 12.6889C9.54481 11.5331 10.5256 10.9551 11.8216 10.9551C13.1526 10.9551 14.1333 11.5155 14.7638 12.6364C15.4293 13.7222 15.7621 15.6137 15.7621 18.3108C15.7621 21.0078 15.4293 22.9343 14.7638 24.0902ZM5.77943 45.0537C4.51846 44.0029 3.88798 42.4442 3.88798 40.3777C3.88798 39.6071 4.0456 38.7664 4.36084 37.8557C4.67608 36.9801 5.07889 36.1919 5.56927 35.4914L6.40991 35.7016L15.9197 37.4879C17.636 37.8032 18.8444 38.2585 19.545 38.854C20.2805 39.4494 20.6483 40.2376 20.6483 41.2183C20.6483 42.9346 19.9128 44.2656 18.4416 45.2114C16.9705 46.1571 14.7813 46.6299 11.8741 46.6299C9.10698 46.6299 7.07542 46.1045 5.77943 45.0537Z" fill="#1F1212"/>
<path d="M26.0982 12.8084C25.1174 13.1937 21.4014 13.8178 20.2805 13.9929L21.2358 14.4705C21.2358 14.4705 24.2547 14.5726 25.5346 15.4258C26.9675 16.3811 26.9675 16.8587 26.9675 16.8587L29.5658 11.6525L28.8303 11.1271C28.0247 11.8276 27.114 12.388 26.0982 12.8084Z" fill="#1F1212"/>
<path d="M47.5051 53.2424C46.7931 53.2424 46.2011 53.0624 45.7291 52.7024C45.2571 52.3424 44.9811 51.8544 44.9011 51.2384H45.9331C45.9971 51.5504 46.1611 51.8224 46.4251 52.0544C46.6971 52.2784 47.0611 52.3904 47.5171 52.3904C47.9411 52.3904 48.2531 52.3024 48.4531 52.1264C48.6531 51.9424 48.7531 51.7264 48.7531 51.4784C48.7531 51.1184 48.6211 50.8784 48.3571 50.7584C48.1011 50.6384 47.7371 50.5304 47.2651 50.4344C46.9451 50.3704 46.6251 50.2784 46.3051 50.1584C45.9851 50.0384 45.7171 49.8704 45.5011 49.6544C45.2851 49.4304 45.1771 49.1384 45.1771 48.7784C45.1771 48.2584 45.3691 47.8344 45.7531 47.5064C46.1451 47.1704 46.6731 47.0024 47.3371 47.0024C47.9691 47.0024 48.4851 47.1624 48.8851 47.4824C49.2931 47.7944 49.5291 48.2424 49.5931 48.8264H48.5971C48.5571 48.5224 48.4251 48.2864 48.2011 48.1184C47.9851 47.9424 47.6931 47.8544 47.3251 47.8544C46.9651 47.8544 46.6851 47.9304 46.4851 48.0824C46.2931 48.2344 46.1971 48.4344 46.1971 48.6824C46.1971 48.9224 46.3211 49.1104 46.5691 49.2464C46.8251 49.3824 47.1691 49.4984 47.6011 49.5944C47.9691 49.6744 48.3171 49.7744 48.6451 49.8944C48.9811 50.0064 49.2531 50.1784 49.4611 50.4104C49.6771 50.6344 49.7851 50.9624 49.7851 51.3944C49.7931 51.9304 49.5891 52.3744 49.1731 52.7264C48.7651 53.0704 48.2091 53.2424 47.5051 53.2424Z" fill="#1F1212"/>
<path d="M53.3076 53.0984C52.7636 53.0984 52.3356 52.9664 52.0236 52.7024C51.7116 52.4384 51.5556 51.9624 51.5556 51.2744V47.9984H50.5236V47.1464H51.5556L51.6876 45.7184H52.5636V47.1464H54.3156V47.9984H52.5636V51.2744C52.5636 51.6504 52.6396 51.9064 52.7916 52.0424C52.9436 52.1704 53.2116 52.2344 53.5956 52.2344H54.2196V53.0984H53.3076Z" fill="#1F1212"/>
<path d="M57.7682 53.2424C57.0642 53.2424 56.5042 53.0304 56.0882 52.6064C55.6722 52.1744 55.4642 51.5144 55.4642 50.6264V47.1464H56.4722V50.5184C56.4722 51.7584 56.9802 52.3784 57.9962 52.3784C58.5162 52.3784 58.9442 52.1944 59.2802 51.8264C59.6242 51.4504 59.7962 50.9184 59.7962 50.2304V47.1464H60.8042V53.0984H59.8922L59.8202 52.0304C59.6362 52.4064 59.3602 52.7024 58.9922 52.9184C58.6322 53.1344 58.2242 53.2424 57.7682 53.2424Z" fill="#1F1212"/>
<path d="M65.1634 53.2424C64.5714 53.2424 64.0514 53.1064 63.6034 52.8344C63.1634 52.5624 62.8194 52.1904 62.5714 51.7184C62.3314 51.2464 62.2114 50.7104 62.2114 50.1104C62.2114 49.5104 62.3354 48.9784 62.5834 48.5144C62.8314 48.0424 63.1754 47.6744 63.6154 47.4104C64.0554 47.1384 64.5754 47.0024 65.1754 47.0024C65.6634 47.0024 66.0954 47.1024 66.4714 47.3024C66.8474 47.5024 67.1394 47.7824 67.3474 48.1424V44.4584H68.3554V53.0984H67.4434L67.3474 52.1144C67.1554 52.4024 66.8794 52.6624 66.5194 52.8944C66.1594 53.1264 65.7074 53.2424 65.1634 53.2424ZM65.2714 52.3664C65.6714 52.3664 66.0234 52.2744 66.3274 52.0904C66.6394 51.8984 66.8794 51.6344 67.0474 51.2984C67.2234 50.9624 67.3114 50.5704 67.3114 50.1224C67.3114 49.6744 67.2234 49.2824 67.0474 48.9464C66.8794 48.6104 66.6394 48.3504 66.3274 48.1664C66.0234 47.9744 65.6714 47.8784 65.2714 47.8784C64.8794 47.8784 64.5274 47.9744 64.2154 48.1664C63.9114 48.3504 63.6714 48.6104 63.4954 48.9464C63.3274 49.2824 63.2434 49.6744 63.2434 50.1224C63.2434 50.5704 63.3274 50.9624 63.4954 51.2984C63.6714 51.6344 63.9114 51.8984 64.2154 52.0904C64.5274 52.2744 64.8794 52.3664 65.2714 52.3664Z" fill="#1F1212"/>
<path d="M70.6105 45.8264C70.4105 45.8264 70.2425 45.7624 70.1065 45.6344C69.9785 45.4984 69.9145 45.3304 69.9145 45.1304C69.9145 44.9384 69.9785 44.7784 70.1065 44.6504C70.2425 44.5224 70.4105 44.4584 70.6105 44.4584C70.8025 44.4584 70.9665 44.5224 71.1025 44.6504C71.2385 44.7784 71.3065 44.9384 71.3065 45.1304C71.3065 45.3304 71.2385 45.4984 71.1025 45.6344C70.9665 45.7624 70.8025 45.8264 70.6105 45.8264ZM70.1065 53.0984V47.1464H71.1145V53.0984H70.1065Z" fill="#1F1212"/>
<path d="M75.5816 53.2424C75.0216 53.2424 74.5176 53.1144 74.0696 52.8584C73.6216 52.6024 73.2656 52.2424 73.0016 51.7784C72.7456 51.3064 72.6176 50.7544 72.6176 50.1224C72.6176 49.4904 72.7496 48.9424 73.0136 48.4784C73.2776 48.0064 73.6336 47.6424 74.0816 47.3864C74.5376 47.1304 75.0456 47.0024 75.6056 47.0024C76.1656 47.0024 76.6696 47.1304 77.1176 47.3864C77.5656 47.6424 77.9176 48.0064 78.1736 48.4784C78.4376 48.9424 78.5696 49.4904 78.5696 50.1224C78.5696 50.7544 78.4376 51.3064 78.1736 51.7784C77.9096 52.2424 77.5496 52.6024 77.0936 52.8584C76.6456 53.1144 76.1416 53.2424 75.5816 53.2424ZM75.5816 52.3784C75.9256 52.3784 76.2456 52.2944 76.5416 52.1264C76.8376 51.9584 77.0776 51.7064 77.2616 51.3704C77.4456 51.0344 77.5376 50.6184 77.5376 50.1224C77.5376 49.6264 77.4456 49.2104 77.2616 48.8744C77.0856 48.5384 76.8496 48.2864 76.5536 48.1184C76.2576 47.9504 75.9416 47.8664 75.6056 47.8664C75.2616 47.8664 74.9416 47.9504 74.6456 48.1184C74.3496 48.2864 74.1096 48.5384 73.9256 48.8744C73.7416 49.2104 73.6496 49.6264 73.6496 50.1224C73.6496 50.6184 73.7416 51.0344 73.9256 51.3704C74.1096 51.7064 74.3456 51.9584 74.6336 52.1264C74.9296 52.2944 75.2456 52.3784 75.5816 52.3784Z" fill="#1F1212"/>
</svg>
