<svg width="60" height="75" viewBox="0 0 60 75" fill="none" xmlns="http://www.w3.org/2000/svg">
<path d="M17.3287 25.1396C13.9589 25.1396 11.1019 24.578 8.75775 23.4547V25.9454C8.75775 27.4594 9.51472 28.3629 11.0287 28.6559L24.8008 31.2198C27.0961 31.6594 29.1717 32.2454 31.0275 32.978C32.8833 33.6617 34.3729 34.6629 35.4961 35.9815C36.6194 37.2512 37.181 39.0094 37.181 41.2559C37.181 43.6489 36.3996 45.8466 34.8368 47.8489C33.274 49.9001 30.9543 51.5361 27.8775 52.7571C24.8496 54.0268 21.9064 53.8206 17.3645 53.8206C13.4575 53.8206 9.51472 54.2466 7.21937 53.4164C4.92402 52.635 4.1386 51.3529 3.16185 50.0831C2.23395 48.8133 2.41437 47.0143 2.41437 45.598C2.41437 43.8399 1.50541 42.7698 2.67751 40.9629C3.89844 39.2047 9.88947 36.6279 7.14612 36.714C5.63216 36.128 4.53332 35.371 3.8496 34.4431C3.16588 33.5152 2.82402 32.514 2.82402 31.4396C2.82402 30.4629 3.06821 29.5594 3.55658 28.7291C4.09379 27.8501 4.72867 26.971 5.46123 26.0919L7.87867 23.0152C4.31356 20.964 2.531 17.7408 2.531 13.3454C2.531 9.82912 3.77635 6.97214 6.26704 4.77447C8.80658 2.57679 12.5182 1.47796 17.4019 1.47796C19.8926 1.47796 22.0659 1.77098 23.9217 2.35702C25.8264 2.94307 27.3892 3.7733 28.6101 4.84772C30.1729 4.60354 31.638 4.21284 33.0054 3.67563C34.4217 3.08958 35.6915 2.30819 36.8147 1.33144L37.8403 0C37.8403 0 38.4808 2.1425 37.181 3.99753C35.326 6.64505 29.5624 5.80005 29.5624 5.80005C31.3206 7.75354 32.1996 10.2687 32.1996 13.3454C32.1996 16.764 30.9299 19.5966 28.3903 21.8431C25.8996 24.0408 22.2124 25.1396 17.3287 25.1396ZM17.2554 23.6745C19.2089 23.6745 20.6252 22.8687 21.5043 21.257C22.4322 19.6454 22.8961 16.9594 22.8961 13.1989C22.8961 9.43843 22.4322 6.80121 21.5043 5.28726C20.6252 3.72447 19.2577 2.94307 17.4019 2.94307C15.595 2.94307 14.2275 3.74889 13.2996 5.36052C12.3717 6.92331 11.9077 9.58494 11.9077 13.3454C11.9077 17.1059 12.3229 19.7675 13.1531 21.3303C14.0322 22.8931 15.3996 23.6745 17.2554 23.6745ZM6.3403 43.9664C6.3403 46.8477 7.21937 49.021 8.97751 50.4861C10.7845 51.9512 13.617 52.6838 17.4752 52.6838C21.5287 52.6838 24.581 52.0245 26.6322 50.7059C28.6833 49.3873 29.7089 47.5315 29.7089 45.1384C29.7089 43.771 29.1961 42.6722 28.1705 41.8419C27.1938 41.0117 25.5089 40.3768 23.1159 39.9373L9.85658 37.4466C9.46588 37.3489 9.07519 37.2512 8.68449 37.1536C8.00077 38.1303 7.43914 39.2291 6.9996 40.4501C6.56007 41.7198 6.3403 42.8919 6.3403 43.9664Z" fill="#1F1212"/>
<path d="M10.9554 74.6891C8.12281 74.6891 5.72978 73.8833 3.77629 72.2716C1.87164 70.66 0.919312 68.3402 0.919312 65.3123C0.919312 63.017 2.09141 60.917 4.43559 59.0123C6.77978 57.0588 10.467 55.5937 15.4972 54.617C16.2786 54.4705 17.1577 54.324 18.1344 54.1774C19.1112 53.9821 20.1368 53.7867 21.2112 53.5914V47.8042C21.2112 44.4832 20.7961 42.1635 19.9658 40.8449C19.1844 39.4774 16.1967 38.2809 14.4874 38.2809C13.3153 38.2809 12.8112 37.0199 12.1275 37.8013C11.4437 38.5339 13.0748 34.6086 12.8795 36.4645L14.3745 36.4645C14.2768 38.5645 16.4251 33.0236 15.4972 34.0004C14.5693 34.9771 14.2469 34.9695 12.8795 34.9695C11.6097 34.9695 11.4672 36.4984 10.6369 35.717C9.80669 34.9356 9.14191 37.0356 9.14191 35.717C9.14191 33.7146 11.512 36.3369 12.8795 34.9695C14.2957 33.602 10.2126 37.0177 12.5079 36.334C13.1285 36.1491 11.4783 37.9362 12.1275 37.8013C13.8793 37.4373 15.7351 37.2553 17.6949 37.2553C22.0414 37.2553 25.3868 38.3298 27.731 40.4786C30.124 42.5786 31.3205 46.0216 31.3205 50.8077V66.9972C31.3205 69.1949 32.3461 70.2937 34.3972 70.2937C34.3972 70.2937 35.3813 70.3409 36.0089 70.2937C38.2407 70.1261 41.4029 68.3577 41.4029 68.3577C40.475 69.5298 37.0628 72.3939 33.5914 73.5902C31.8516 74.1899 30.9786 74.5426 28.9763 74.5426C26.8275 74.5426 25.1182 74.0542 23.8484 73.0775C22.6275 72.0519 21.8217 70.7089 21.431 69.0484C19.9658 70.6112 18.4519 71.9542 16.8891 73.0775C15.3751 74.1519 13.3972 74.6891 10.9554 74.6891ZM15.424 70.2205C16.4007 70.2205 17.3042 70.0007 18.1344 69.5612C19.0135 69.0728 20.0391 68.3402 21.2112 67.3635V55.0565C20.7228 55.1542 20.2344 55.2519 19.7461 55.3495C19.2577 55.4472 18.6961 55.5449 18.0612 55.6426C15.8147 56.2286 14.0077 57.2298 12.6403 58.6461C11.3216 60.0135 10.6623 61.8693 10.6623 64.2135C10.6623 66.2158 11.1263 67.7298 12.0542 68.7554C12.9821 69.7321 14.1054 70.2205 15.424 70.2205Z" fill="#1F1212"/>
<path d="M8.69418 36.6236C5.95811 37.3566 3.85514 38.7543 2.38527 40.8165C0.962563 42.8662 0.643003 45.3534 1.42658 48.2781C2.02059 50.4953 3.6962 52.2204 6.45343 53.4535C9.2233 54.7338 14.4953 54.7068 19.607 54.3485C20.3997 54.2878 19.9554 54.6899 20.9368 54.5787C21.9309 54.5146 22.9721 54.4379 24.0604 54.3485L30.3561 38.7832C31.2155 41.991 26.6168 65.4946 26.1561 66.9831C25.7552 68.5062 26.4906 68.3284 24.8395 68.7708C23.7074 69.0741 25.7022 70.8436 24.8395 70.2658C23.9895 69.7351 26.256 72.7554 25.587 71.0133L24.0921 71.0133C23.4543 69.0101 26.7362 72.4641 25.5871 71.7608C26.9079 71.4069 24.438 71.0575 25.5871 71.7608C24.3606 72.0894 24.6917 69.2962 24.092 70.2658C23.4923 71.2354 24.8808 70.4871 25.2221 71.7608C25.7402 73.6949 23.9124 70.7938 25.5871 71.7608C27.309 72.7151 22.4454 70.1994 24.8395 70.2658C24.1776 70.3035 25.4868 70.2838 24.8395 70.2658C26.6259 70.164 22.9984 71.5452 24.8915 71.038C29.0899 69.9132 27.6164 66.2205 29.3246 63.5382C31.0926 60.8905 29.0681 56.9486 27.8296 52.3256L30.3561 38.7832C29.7874 36.6604 25.0541 35.6637 27.0354 35.1329C30.6981 35.3902 25.8357 34.2409 27.0354 35.1329C28.9695 34.6147 25.1996 35.004 27.0354 35.1329C28.0091 33.8608 24.9597 35.689 27.0354 35.1329C26.1214 36.4395 20.2203 37.6562 20.2726 39.3612C18.453 38.2308 16.6431 37.3253 14.8428 36.6448C13.1024 35.9987 11.0529 35.9917 8.69418 36.6236ZM14.167 39.7836C15.1104 39.5308 16.04 39.5093 16.9557 39.719C17.9312 39.9632 19.1115 40.4054 20.4964 41.0456L23.6813 52.9333C23.1843 52.9653 22.6872 52.9974 22.1902 53.0294C21.6932 53.0615 22.1664 52.2556 21.5278 52.3256C19.2062 52.3409 16.1608 52.6982 14.4734 51.6841C12.8458 50.7045 11.7287 49.0825 11.1221 46.8182C10.6039 44.884 10.6603 43.3016 11.2912 42.0708C11.9347 40.8872 12.8933 40.1248 14.167 39.7836Z" fill="#1F1212"/>
</svg>
