<svg width="66" height="30" viewBox="0 0 66 30" fill="none" xmlns="http://www.w3.org/2000/svg">
<path d="M18.0096 18.499C17.0027 18.499 16.1521 18.2148 15.4577 17.6464C14.7807 17.078 14.4422 16.2598 14.4422 15.1919C14.4422 14.3823 14.8588 13.6417 15.6921 12.9699C16.5253 12.281 17.836 11.7642 19.624 11.4198C19.9018 11.3681 20.2143 11.3164 20.5615 11.2647C20.9086 11.1958 21.2732 11.1269 21.6551 11.058V9.01695C21.6551 7.8457 21.5076 7.02754 21.2124 6.56248C20.9347 6.0802 20.492 5.83906 19.8844 5.83906C19.4678 5.83906 19.138 5.97685 18.8949 6.25244C18.6519 6.51081 18.4957 6.96725 18.4262 7.62178L18.3741 7.90598C18.3394 8.64663 18.1571 9.1892 17.8273 9.53369C17.4975 9.87817 17.0895 10.0504 16.6034 10.0504C16.1521 10.0504 15.7789 9.91262 15.4838 9.63703C15.1886 9.36144 15.0411 8.99112 15.0411 8.52606C15.0411 7.81986 15.2841 7.22562 15.7702 6.74334C16.2736 6.26106 16.9333 5.89934 17.7492 5.6582C18.5651 5.41706 19.4504 5.29649 20.4052 5.29649C21.9502 5.29649 23.1394 5.67543 23.9726 6.4333C24.8233 7.17395 25.2486 8.38827 25.2486 10.0763V15.7861C25.2486 16.5612 25.6131 16.9488 26.3422 16.9488C26.3422 16.9488 26.6931 16.9761 26.9151 16.9488C27.5331 16.8727 28.3342 16.2275 28.3342 16.2275C28.6055 16.4966 27.3647 17.8041 26.4355 18.1114C25.815 18.3166 25.1271 18.4473 24.4153 18.4473C23.6515 18.4473 23.0439 18.275 22.5925 17.9306C22.1585 17.5688 21.8721 17.0952 21.7332 16.5096C21.2124 17.0607 20.6743 17.5344 20.1188 17.9306C19.5806 18.3095 18.8776 18.499 18.0096 18.499ZM19.598 16.9229C19.9452 16.9229 20.2663 16.8454 20.5615 16.6904C20.8739 16.5182 21.2385 16.2598 21.6551 15.9153V11.5748C21.4815 11.6092 21.3079 11.6437 21.1343 11.6781C20.9607 11.7126 20.7611 11.747 20.5354 11.7815C19.7369 11.9882 19.0946 12.3413 18.6085 12.8408C18.1398 13.323 17.9054 13.9776 17.9054 14.8043C17.9054 15.5105 18.0703 16.0445 18.4002 16.4062C18.73 16.7507 19.1293 16.9229 19.598 16.9229Z" fill="white"/>
<path d="M31.4871 18.499C30.4802 18.499 29.6296 18.2148 28.9352 17.6464C28.2582 17.078 27.9197 16.2598 27.9197 15.1919C27.9197 14.3823 28.3363 13.6417 29.1695 12.9699C30.0028 12.281 31.3135 11.7642 33.1015 11.4198C33.3793 11.3681 33.6917 11.3164 34.0389 11.2647C34.3861 11.1958 34.7507 11.1269 35.1326 11.058V9.01695C35.1326 7.8457 34.985 7.02754 34.6899 6.56248C34.4122 6.0802 33.9695 5.83906 33.3619 5.83906C32.9453 5.83906 32.6154 5.97685 32.3724 6.25244C32.1294 6.51081 31.9731 6.96725 31.9037 7.62178L31.8516 7.90598C31.8169 8.64663 31.6346 9.1892 31.3048 9.53369C30.975 9.87817 30.567 10.0504 30.0809 10.0504C29.6296 10.0504 29.2563 9.91262 28.9612 9.63703C28.6661 9.36144 28.5186 8.99112 28.5186 8.52606C28.5186 7.81986 28.7616 7.22562 29.2477 6.74334C29.7511 6.26106 30.4108 5.89934 31.2267 5.6582C32.0426 5.41706 32.9279 5.29649 33.8827 5.29649C35.4277 5.29649 36.6168 5.67543 37.4501 6.4333C38.3007 7.17395 38.726 8.38827 38.726 10.0763V15.7861C38.726 16.5612 39.0906 16.9488 39.8197 16.9488H40.3926L40.6269 17.1555C40.2971 17.5688 39.9325 17.8875 39.5333 18.1114C39.1514 18.3353 38.6045 18.4473 37.8928 18.4473C37.129 18.4473 36.5214 18.275 36.07 17.9306C35.636 17.5688 35.3496 17.0952 35.2107 16.5096C34.6899 17.0607 34.1518 17.5344 33.5963 17.9306C33.0581 18.3095 32.355 18.499 31.4871 18.499ZM33.0755 16.9229C33.4227 16.9229 33.7438 16.8454 34.0389 16.6904C34.3514 16.5182 34.716 16.2598 35.1326 15.9153V11.5748C34.959 11.6092 34.7854 11.6437 34.6118 11.6781C34.4382 11.7126 34.2386 11.747 34.0129 11.7815C33.2144 11.9882 32.572 12.3413 32.086 12.8408C31.6173 13.323 31.3829 13.9776 31.3829 14.8043C31.3829 15.5105 31.5478 16.0445 31.8777 16.4062C32.2075 16.7507 32.6068 16.9229 33.0755 16.9229Z" fill="white"/>
<path d="M41.1119 18.1114V17.8531L41.5025 17.7497C41.8497 17.6464 42.0841 17.4913 42.2056 17.2846C42.3445 17.078 42.4139 16.811 42.4139 16.4837V8.39688C42.4139 8.01794 42.3445 7.74235 42.2056 7.57011C42.0841 7.38064 41.8497 7.25146 41.5025 7.18256L41.1119 7.07921V6.82085L45.5907 5.32233L45.8511 5.58069L46.0855 7.80264V8.00933C46.3285 7.52705 46.641 7.08783 47.0229 6.69166C47.4222 6.27828 47.8562 5.94241 48.3249 5.68404C48.8109 5.42567 49.2883 5.29649 49.757 5.29649C50.4167 5.29649 50.9201 5.47735 51.2673 5.83906C51.3583 5.93383 51.4373 6.03511 51.5045 6.14289C51.6936 6.44646 51.7881 6.80163 51.7881 7.2084C51.7881 7.79402 51.6145 8.25047 51.2673 8.57773C50.9375 8.88777 50.5382 9.04279 50.0695 9.04279C49.3404 9.04279 48.6981 8.68108 48.1426 7.95766L48.0905 7.90598C47.9169 7.66484 47.7173 7.53566 47.4916 7.51843C47.2659 7.48399 47.0576 7.58733 46.8666 7.82847C46.6931 7.98349 46.5455 8.17296 46.424 8.39688C46.3198 8.60357 46.2157 8.84471 46.1115 9.1203V16.3287C46.1115 17.0177 46.4153 17.4483 47.0229 17.6205L47.8562 17.8531V18.1114H41.1119Z" fill="white"/>
<path d="M57.7194 18.499C56.6952 18.499 55.7751 18.275 54.9592 17.8272C54.1433 17.3622 53.4923 16.656 53.0063 15.7086C52.5376 14.7441 52.3032 13.5125 52.3032 12.014C52.3032 10.4983 52.5723 9.24948 53.1104 8.26769C53.6486 7.26868 54.3603 6.52803 55.2457 6.04575C56.131 5.54625 57.0945 5.29649 58.1361 5.29649C58.7437 5.29649 59.3252 5.35678 59.8807 5.47735C60.4362 5.59792 60.931 5.77877 61.365 6.01991V2.66116C61.365 2.29945 61.3042 2.03248 61.1827 1.86023C61.0785 1.68799 60.8442 1.56742 60.4796 1.49852L59.9849 1.39517V1.13681L64.7241 0L65.0105 0.232529L64.9063 3.84964V16.4837C64.9063 16.8282 64.9671 17.1124 65.0886 17.3363C65.2101 17.543 65.4358 17.6894 65.7656 17.7755L66 17.8531V18.1114L61.5472 18.3956L61.3129 17.4655C60.8442 17.7755 60.306 18.0253 59.6984 18.2148C59.1082 18.4042 58.4485 18.499 57.7194 18.499ZM59.2297 17.543C59.9588 17.543 60.6272 17.3277 61.2348 16.8971V6.63999C60.5925 6.22661 59.9328 6.01991 59.2558 6.01991C58.4225 6.01991 57.7108 6.5022 57.1205 7.46676C56.5303 8.4141 56.2352 9.91262 56.2352 11.9623C56.2352 14.012 56.5129 15.4589 57.0684 16.3029C57.624 17.1296 58.3444 17.543 59.2297 17.543Z" fill="white"/>
<path fill-rule="evenodd" clip-rule="evenodd" d="M3.19255 14.462C4.14734 14.9159 5.31098 15.1429 6.68348 15.1429C8.6726 15.1429 10.1744 14.6988 11.1889 13.8107C12.2232 12.9028 12.7404 11.7581 12.7404 10.3766C12.7404 9.13322 12.3823 8.1168 11.6662 7.32735L11.2784 6.94249C10.7811 6.50829 10.1446 6.17278 9.3688 5.93594C8.61293 5.69911 7.72777 5.58069 6.71331 5.58069C4.72418 5.58069 3.21244 6.02476 2.1781 6.91289C1.16364 7.80102 0.656413 8.95559 0.656413 10.3766C0.656413 12.1529 1.38244 13.4555 2.83451 14.2844L1.84989 15.5278C1.55152 15.883 1.29293 16.2383 1.07413 16.5935C0.875217 16.929 0.775761 17.2942 0.775761 17.6889C0.775761 18.1231 0.915 18.5277 1.19348 18.9027C1.47196 19.2776 1.91951 19.5836 2.53614 19.8204C1.82005 20.2546 1.21337 20.8269 0.716087 21.5374C0.238696 22.2677 0 22.9881 0 23.6986C0 24.2709 0.188967 24.8137 0.566902 25.3268C0.964728 25.84 1.63109 26.2544 2.56598 26.5702C3.50087 26.9057 4.76397 27.0735 6.35527 27.0735C8.20516 27.0735 9.74674 26.8169 10.98 26.3038C12.2331 25.8103 13.178 25.1492 13.8145 24.3203C14.451 23.5111 14.7693 22.6229 14.7693 21.6559C14.7693 20.748 14.5405 20.0375 14.083 19.5244C13.6255 18.9915 13.0189 18.5869 12.263 18.3106C11.5071 18.0145 10.6617 17.7777 9.72684 17.6001L4.1175 16.5639C3.50087 16.4455 3.19255 16.0804 3.19255 15.4686V14.462ZM8.38418 13.5739C8.02614 14.2252 7.44929 14.5508 6.65364 14.5508C5.89777 14.5508 5.34081 14.235 4.98277 13.6035C4.64462 12.9719 4.47554 11.8963 4.47554 10.3766C4.47554 8.85691 4.66451 7.78128 5.04244 7.14972C5.42038 6.49843 5.97733 6.17278 6.71331 6.17278C7.46918 6.17278 8.02614 6.48856 8.38418 7.12012C8.76212 7.73194 8.95108 8.7977 8.95108 10.3174C8.95108 11.8371 8.76212 12.9226 8.38418 13.5739ZM3.28206 25.386C2.56598 24.7939 2.20793 23.9157 2.20793 22.7512C2.20793 22.317 2.29744 21.8434 2.47647 21.3302C2.65549 20.8368 2.88424 20.3927 3.16272 19.998L3.64011 20.1164L9.04059 21.123C10.0153 21.3006 10.7015 21.5572 11.0993 21.8927C11.5171 22.2282 11.7259 22.6723 11.7259 23.2249C11.7259 24.192 11.3082 24.942 10.4728 25.4748C9.63733 26.0077 8.39413 26.2741 6.74315 26.2741C5.17174 26.2741 4.01804 25.9781 3.28206 25.386Z" fill="white"/>
<path d="M14.8208 7.21701C14.2639 7.43411 12.1536 7.78578 11.5171 7.88446L12.0596 8.15359C12.0596 8.15359 13.774 8.21109 14.5008 8.69185C15.3145 9.23011 15.3145 9.49924 15.3145 9.49924L16.7901 6.56572L16.3723 6.26967C15.9149 6.6644 15.3977 6.98018 14.8208 7.21701Z" fill="white"/>
<path d="M26.9775 30C26.5732 30 26.237 29.8986 25.969 29.6957C25.7009 29.4929 25.5442 29.2179 25.4988 28.8708H26.0848C26.1212 29.0466 26.2143 29.1999 26.3642 29.3306C26.5187 29.4568 26.7254 29.5199 26.9844 29.5199C27.2251 29.5199 27.4023 29.4703 27.5159 29.3712C27.6295 29.2675 27.6863 29.1458 27.6863 29.0061C27.6863 28.8032 27.6113 28.668 27.4614 28.6004C27.316 28.5327 27.1093 28.4719 26.8412 28.4178C26.6595 28.3817 26.4778 28.3299 26.2961 28.2623C26.1143 28.1947 25.9622 28.1 25.8395 27.9783C25.7168 27.8521 25.6555 27.6876 25.6555 27.4847C25.6555 27.1917 25.7645 26.9528 25.9826 26.768C26.2052 26.5787 26.5051 26.484 26.8821 26.484C27.241 26.484 27.5341 26.5742 27.7612 26.7545C27.9929 26.9303 28.1269 27.1827 28.1633 27.5118H27.5977C27.575 27.3405 27.5 27.2075 27.3728 27.1128C27.2501 27.0137 27.0843 26.9641 26.8753 26.9641C26.6709 26.9641 26.5119 27.0069 26.3983 27.0925C26.2893 27.1782 26.2347 27.2909 26.2347 27.4306C26.2347 27.5658 26.3052 27.6718 26.446 27.7484C26.5914 27.825 26.7867 27.8904 27.0321 27.9445C27.241 27.9896 27.4387 28.0459 27.6249 28.1135C27.8157 28.1766 27.9702 28.2736 28.0883 28.4043C28.211 28.5305 28.2723 28.7153 28.2723 28.9587C28.2769 29.2607 28.161 29.5109 27.9248 29.7093C27.6931 29.9031 27.3773 30 26.9775 30Z" fill="white"/>
<path d="M30.2727 29.9189C29.9638 29.9189 29.7207 29.8445 29.5435 29.6957C29.3663 29.547 29.2777 29.2788 29.2777 28.8911V27.0452H28.6917V26.5651H29.2777L29.3527 25.7605H29.8502V26.5651H30.8451V27.0452H29.8502V28.8911C29.8502 29.103 29.8933 29.2472 29.9797 29.3238C30.066 29.396 30.2182 29.432 30.4362 29.432H30.7906V29.9189H30.2727Z" fill="white"/>
<path d="M32.8058 30C32.406 30 32.088 29.8805 31.8518 29.6416C31.6155 29.3982 31.4974 29.0263 31.4974 28.526V26.5651H32.0698V28.4651C32.0698 29.1638 32.3583 29.5132 32.9353 29.5132C33.2306 29.5132 33.4737 29.4095 33.6645 29.2021C33.8598 28.9903 33.9575 28.6905 33.9575 28.3029V26.5651H34.5299V29.9189H34.012L33.9711 29.3171C33.8666 29.5289 33.7099 29.6957 33.5009 29.8174C33.2965 29.9391 33.0648 30 32.8058 30Z" fill="white"/>
<path d="M37.0055 30C36.6693 30 36.374 29.9234 36.1195 29.7701C35.8697 29.6168 35.6743 29.4072 35.5335 29.1413C35.3972 28.8753 35.329 28.5733 35.329 28.2352C35.329 27.8972 35.3995 27.5974 35.5403 27.336C35.6811 27.07 35.8765 26.8626 36.1264 26.7139C36.3762 26.5606 36.6715 26.484 37.0123 26.484C37.2894 26.484 37.5347 26.5404 37.7482 26.653C37.9618 26.7657 38.1276 26.9235 38.2457 27.1263V25.0506H38.8181V29.9189H38.3002L38.2457 29.3644C38.1367 29.5267 37.9799 29.6732 37.7755 29.8039C37.5711 29.9346 37.3144 30 37.0055 30ZM37.0668 29.5064C37.2939 29.5064 37.4938 29.4546 37.6665 29.3509C37.8437 29.2427 37.9799 29.094 38.0754 28.9046C38.1753 28.7153 38.2253 28.4944 38.2253 28.242C38.2253 27.9896 38.1753 27.7687 38.0754 27.5794C37.9799 27.39 37.8437 27.2436 37.6665 27.1399C37.4938 27.0317 37.2939 26.9776 37.0668 26.9776C36.8442 26.9776 36.6443 27.0317 36.4671 27.1399C36.2945 27.2436 36.1582 27.39 36.0582 27.5794C35.9628 27.7687 35.9151 27.9896 35.9151 28.242C35.9151 28.4944 35.9628 28.7153 36.0582 28.9046C36.1582 29.094 36.2945 29.2427 36.4671 29.3509C36.6443 29.4546 36.8442 29.5064 37.0668 29.5064Z" fill="white"/>
<path d="M40.0988 25.8214C39.9852 25.8214 39.8898 25.7853 39.8126 25.7132C39.7399 25.6366 39.7036 25.5419 39.7036 25.4292C39.7036 25.321 39.7399 25.2309 39.8126 25.1587C39.8898 25.0866 39.9852 25.0506 40.0988 25.0506C40.2079 25.0506 40.301 25.0866 40.3782 25.1587C40.4555 25.2309 40.4941 25.321 40.4941 25.4292C40.4941 25.5419 40.4555 25.6366 40.3782 25.7132C40.301 25.7853 40.2079 25.8214 40.0988 25.8214ZM39.8126 29.9189V26.5651H40.385V29.9189H39.8126Z" fill="white"/>
<path d="M42.9218 30C42.6038 30 42.3176 29.9279 42.0632 29.7836C41.8088 29.6394 41.6066 29.4365 41.4567 29.1751C41.3113 28.9091 41.2386 28.5981 41.2386 28.242C41.2386 27.8859 41.3136 27.5771 41.4635 27.3157C41.6134 27.0497 41.8156 26.8446 42.07 26.7004C42.329 26.5561 42.6175 26.484 42.9355 26.484C43.2535 26.484 43.5397 26.5561 43.7941 26.7004C44.0485 26.8446 44.2484 27.0497 44.3938 27.3157C44.5437 27.5771 44.6187 27.8859 44.6187 28.242C44.6187 28.5981 44.5437 28.9091 44.3938 29.1751C44.2439 29.4365 44.0394 29.6394 43.7805 29.7836C43.5261 29.9279 43.2399 30 42.9218 30ZM42.9218 29.5132C43.1172 29.5132 43.2989 29.4658 43.467 29.3712C43.6351 29.2765 43.7714 29.1345 43.8759 28.9452C43.9804 28.7559 44.0326 28.5215 44.0326 28.242C44.0326 27.9625 43.9804 27.7281 43.8759 27.5388C43.7759 27.3495 43.6419 27.2075 43.4738 27.1128C43.3057 27.0182 43.1263 26.9708 42.9355 26.9708C42.7401 26.9708 42.5584 27.0182 42.3903 27.1128C42.2222 27.2075 42.0859 27.3495 41.9814 27.5388C41.8769 27.7281 41.8247 27.9625 41.8247 28.242C41.8247 28.5215 41.8769 28.7559 41.9814 28.9452C42.0859 29.1345 42.2199 29.2765 42.3835 29.3712C42.5516 29.4658 42.731 29.5132 42.9218 29.5132Z" fill="white"/>
</svg>
