<svg width="68" height="86" viewBox="0 0 68 86" fill="none" xmlns="http://www.w3.org/2000/svg">
<path d="M20.381 27.9546C16.6339 27.9546 13.457 27.3301 10.8503 26.081V28.8506C10.8503 30.5341 11.692 31.5388 13.3755 31.8646L28.6897 34.7157C31.2421 35.2044 33.5501 35.8561 35.6137 36.6707C37.6774 37.4309 39.3337 38.5442 40.5827 40.0105C41.8317 41.4224 42.4563 43.3774 42.4563 45.8755C42.4563 48.5365 41.5874 50.9802 39.8496 53.2068C38.1118 55.4876 35.5323 57.3068 32.111 58.6645C28.7441 60.0764 25.4713 59.8472 20.4208 59.8472C16.0764 59.8472 11.692 60.3208 9.13967 59.3976C6.5873 58.5287 5.71393 57.1031 4.62781 55.6911C3.596 54.2792 3.79663 52.2787 3.79663 50.7038C3.79663 48.7488 2.7859 47.559 4.08923 45.5497C5.44688 43.5946 12.1088 40.7293 9.05821 40.8251C7.37473 40.1734 6.15285 39.3316 5.39257 38.2998C4.63229 37.268 4.25215 36.1548 4.25215 34.96C4.25215 33.8739 4.52368 32.8693 5.06674 31.9461C5.6641 30.9686 6.37008 29.9911 7.18466 29.0136L9.8728 25.5923C5.90848 23.3114 3.92632 19.7273 3.92632 14.8397C3.92632 10.9297 5.31111 7.75285 8.08071 5.30909C10.9046 2.86533 15.0318 1.64345 20.4624 1.64345C23.232 1.64345 25.6486 1.96928 27.7122 2.62095C29.8302 3.27262 31.568 4.19582 32.9256 5.39055C34.6634 5.11902 36.2926 4.68457 37.8131 4.08721C39.388 3.43554 40.7999 2.56665 42.049 1.48053L43.1894 0C43.1894 0 43.9016 2.3824 42.4563 4.44515C40.3935 7.38913 33.9846 6.44951 33.9846 6.44951C35.9396 8.62174 36.9171 11.4185 36.9171 14.8397C36.9171 18.6412 35.5051 21.7909 32.6812 24.289C29.9116 26.7327 25.8115 27.9546 20.381 27.9546ZM20.2995 26.3254C22.4717 26.3254 24.0466 25.4294 25.0241 23.6373C26.0559 21.8452 26.5718 18.8584 26.5718 14.6768C26.5718 10.4953 26.0559 7.56278 25.0241 5.8793C24.0466 4.14151 22.526 3.27262 20.4624 3.27262C18.4531 3.27262 16.9325 4.16867 15.9007 5.96076C14.8689 7.69854 14.353 10.6582 14.353 14.8397C14.353 19.0213 14.8146 21.981 15.7378 23.7187C16.7153 25.4565 18.2359 26.3254 20.2995 26.3254ZM8.16217 48.8895C8.16217 52.0935 9.13967 54.5101 11.0947 56.1393C13.104 57.7684 16.2537 58.583 20.5439 58.583C25.0513 58.583 28.4454 57.8499 30.7262 56.3836C33.0071 54.9174 34.1475 52.8538 34.1475 50.1928C34.1475 48.6722 33.5773 47.4504 32.4368 46.5272C31.3507 45.604 29.4772 44.898 26.8162 44.4092L12.0722 41.6396C11.6377 41.531 11.2033 41.4224 10.7688 41.3138C10.0086 42.3999 9.38405 43.6218 8.89529 44.9794C8.40654 46.3914 8.16217 47.6947 8.16217 48.8895Z" fill="#F8F8F8"/>
<path d="M13.294 83.0523C10.1443 83.0523 7.4833 82.1562 5.31107 80.3642C3.19315 78.5721 2.13419 75.9925 2.13419 72.6256C2.13419 70.0732 3.43752 67.7381 6.0442 65.6201C8.65088 63.4479 12.751 61.8187 18.3445 60.7326C19.2133 60.5697 20.1909 60.4068 21.277 60.2439C22.3631 60.0266 23.5035 59.8094 24.6982 59.5922V53.157C24.6982 49.4642 24.2366 46.8847 23.3134 45.4184C22.4445 43.8978 19.1223 42.5673 17.2216 42.5673C15.9182 42.5673 15.3576 41.1651 14.5974 42.034C13.8371 42.8486 15.6508 38.4839 15.4336 40.5475L17.096 40.5475C16.9874 42.8826 19.3763 36.7214 18.3445 37.8075C17.3126 38.8936 16.9541 38.8851 15.4336 38.8851C14.0216 38.8851 13.8631 40.5852 12.9399 39.7163C12.0167 38.8474 11.2775 41.1825 11.2775 39.7163C11.2775 37.4897 13.913 40.4057 15.4336 38.8851C17.0084 37.3645 12.4681 41.1627 15.0204 40.4024C15.7105 40.1968 13.8755 42.184 14.5974 42.034C16.5453 41.6293 18.609 41.4269 20.7882 41.4269C25.6214 41.4269 29.3414 42.6217 31.9481 45.0111C34.609 47.3463 35.9395 51.1748 35.9395 56.4968V74.4991C35.9395 76.9429 37.0799 78.1648 39.3608 78.1648C39.3608 78.1648 40.455 78.2172 41.1529 78.1648C43.6346 77.9784 47.1509 76.012 47.1509 76.012C46.1191 77.3153 42.3248 80.5001 38.4647 81.8304C36.5301 82.4972 35.5594 82.8894 33.3329 82.8894C30.9434 82.8894 29.0427 82.3463 27.6307 81.2602C26.2731 80.1198 25.3771 78.6264 24.9426 76.78C23.3134 78.5178 21.63 80.0112 19.8922 81.2602C18.2087 82.4549 16.0093 83.0523 13.294 83.0523ZM18.263 78.0833C19.3491 78.0833 20.3538 77.8389 21.277 77.3502C22.2545 76.8071 23.3949 75.9925 24.6982 74.9064V61.2214C24.1552 61.33 23.6121 61.4386 23.0691 61.5472C22.526 61.6558 21.9015 61.7644 21.1955 61.873C18.6974 62.5247 16.6881 63.638 15.1676 65.2128C13.7013 66.7334 12.9682 68.797 12.9682 71.4037C12.9682 73.6302 13.4841 75.3137 14.5159 76.4541C15.5477 77.5403 16.7967 78.0833 18.263 78.0833Z" fill="#F8F8F8"/>
<path d="M10.7797 40.7245C7.73726 41.5396 5.39881 43.0938 3.76434 45.3869C2.18234 47.6661 1.82699 50.4318 2.69831 53.684C3.35883 56.1495 5.22207 58.0678 8.28804 59.439C11.3681 60.8626 17.2304 60.8326 22.9144 60.4342C23.7959 60.3667 23.3019 60.8138 24.3932 60.6901C25.4985 60.6188 26.6563 60.5335 27.8666 60.4342L34.8672 43.126C35.8229 46.6929 30.7092 72.8283 30.1969 74.4835C29.7511 76.1771 30.5689 75.9795 28.7329 76.4714C27.474 76.8087 29.6922 78.7763 28.7329 78.1338C27.7877 77.5437 30.308 80.9021 29.5641 78.965L27.9018 78.965C27.1926 76.7375 30.8419 80.5783 29.5642 79.7962C31.0329 79.4027 28.2864 79.0141 29.5642 79.7962C28.2003 80.1616 28.5686 77.0556 27.9017 78.1338C27.2348 79.212 28.7788 78.3799 29.1583 79.7962C29.7345 81.9469 27.7019 78.7209 29.5642 79.7962C31.4789 80.8574 26.0707 78.0599 28.7329 78.1338C27.9968 78.1757 29.4527 78.1538 28.7329 78.1338C30.7193 78.0206 26.6856 79.5564 28.7907 78.9925C33.4592 77.7417 31.8207 73.6355 33.7202 70.6529C35.6862 67.7087 33.435 63.3254 32.0578 58.1847L34.8672 43.126C34.2348 40.7654 28.9715 39.6572 31.1746 39.0669C35.2474 39.3529 29.8407 38.075 31.1746 39.0669C33.3253 38.4907 29.1333 38.9235 31.1746 39.0669C32.2574 37.6524 28.8665 39.6853 31.1746 39.0669C30.1583 40.5198 23.5965 41.8727 23.6547 43.7687C21.6313 42.5117 19.6187 41.5048 17.6168 40.748C15.6815 40.0297 13.4025 40.0218 10.7797 40.7245ZM16.8653 44.2383C17.9144 43.9572 18.9481 43.9333 19.9663 44.1665C21.0511 44.4381 22.3634 44.9298 23.9035 45.6416L27.445 58.8605C26.8923 58.8961 26.3396 58.9317 25.787 58.9674C25.2343 59.003 25.7604 58.1069 25.0504 58.1847C22.4688 58.2017 19.0823 58.5991 17.206 57.4714C15.3962 56.3821 14.154 54.5785 13.4795 52.0606C12.9033 49.9099 12.9659 48.1503 13.6675 46.7817C14.383 45.4655 15.449 44.6178 16.8653 44.2383Z" fill="#F8F8F8"/>
</svg>
